<?xml version="1.0" encoding="utf-8"?>
<!-- Svg Vector Icons : http://www.onlinewebfonts.com/icon -->
<!DOCTYPE svg PUBLIC "-//W3C//DTD SVG 1.1//EN" "http://www.w3.org/Graphics/SVG/1.1/DTD/svg11.dtd">
<svg version="1.1" xmlns="http://www.w3.org/2000/svg" xmlns:xlink="http://www.w3.org/1999/xlink" x="0px" y="0px" viewBox="0 0 1000 1000" enable-background="new 0 0 1000 1000" xml:space="preserve">
<metadata> Svg Vector Icons : http://www.onlinewebfonts.com/icon </metadata>
<g><path d="M500,10C229.8,10,10,229.8,10,500c0,270.2,219.8,490,490,490c270.2,0,490-219.8,490-490C990,229.8,770.2,10,500,10z M500,932.4c-238.4,0-432.4-194-432.4-432.4S261.6,67.6,500,67.6s432.4,194,432.4,432.4S738.4,932.4,500,932.4z"/><path d="M756.5,288.5L563.4,406.4l40.1,52.5c-7.9,10.7-12.9,24.1-12.9,38.9c0,34.4,25.7,62.3,57.4,62.3s57.4-27.9,57.4-62.3c0-30.3-19.9-55.5-46.4-61.1l-11-14.5l138.5-84.5L756.5,288.5z"/><path d="M409.4,497.8c0-14.8-5-28.2-12.9-38.9l40.1-52.5L243.5,288.6l-30,49.2L352,422.3l-11,14.5c-26.4,5.6-46.4,30.8-46.4,61.1c0,34.4,25.7,62.3,57.4,62.3S409.4,532.2,409.4,497.8z"/><path d="M360.1,782.9h279.8V647.5H360.1V782.9z M479.4,754.1v-77.8h35v77.8H479.4z M611.1,754.1h-67.8v-77.8h67.8V754.1z M388.9,676.3h61.7v77.8h-61.7V676.3z"/></g>
</svg>